Coordinates
version=1
nRows=12
nColumns=33
inDegrees=yes

Units are S.I. units (second, meters, Newtons, ...)
Angles are in degrees.

endheader
time	ground_thorax_rot_x	ground_thorax_rot_y	ground_thorax_rot_z	ground_thorax_tx	ground_thorax_ty	ground_thorax_tz	clav_prot_r	clav_elev_r	scapula_abduction_r	scapula_elevation_r	scapula_upward_rot_r	scapula_winging_r	shoulder_elv_r	plane_of_elev_r	axial_rot_r	elbow_flexion_r	pro_sup_r	wrist_flex_r	wrist_dev_r	clav_prot_l	clav_elev_l	scapula_abduction_l	scapula_elevation_l	scapula_upward_rot_l	scapula_winging_l	shoulder_elv_l	plane_of_elev_l	axial_rot_l	elbow_flexion_l	pro_sup_l	wrist_flex_l	wrist_dev_l
      4.59000000	     32.13345688	     24.02263804	     31.39605899	    -89.18964341	    836.44298330	    -46.01455849	     12.32500286	     33.75299271	     23.99914706	     45.00000000	    -45.00000000	  -3326.59666964	  -3166.13274714	     23.63524640	    179.99999979	   1804.34361717	   -186.02146431	     13.57946624	     15.42090789	     -7.62322086	    -45.00000000	    -39.16756249	     45.00000000	    -45.00000000	  -2414.91630669	    -88.23087657	    135.19590001	   -131.22529208	    349.89037603	     40.98902214	     13.39452617	    -19.15524171
      4.60000000	     32.17406706	     23.93132725	     31.31802485	    -90.25577765	    838.56229783	    -46.10230067	     12.35919365	     33.76706751	     24.13502463	     45.00000000	    -45.00000000	  -3326.76983831	  -3166.16882227	     23.68113980	    179.99999979	   1804.22564818	   -186.67638111	     13.62891254	     15.44924411	     -7.59284198	    -45.00000000	    -39.25747887	     45.00000000	    -45.00000000	  -2414.83821524	    -88.13221469	    135.18356109	   -131.05680374	    349.87738185	     40.85437976	     13.48174367	    -19.28621153
      4.61000000	     32.20166791	     23.88561093	     31.23505983	    -91.25728967	    840.62822602	    -46.18666565	     12.33711780	     33.70991586	     24.17763690	     45.00000000	    -45.00000000	  -3326.89322322	  -3166.15679243	     23.70586009	    179.99999979	   1804.07728775	   -187.30471036	     13.67813720	     15.47885381	     -7.36914065	    -45.00000000	    -39.38939542	     45.00000000	    -45.00000000	  -2414.73057585	    -88.05617399	    135.11840456	   -130.87594817	    349.89051777	     40.75153186	     13.56002844	    -19.40252892
      4.62000000	     32.23798362	     23.83282348	     31.16337102	    -92.19525578	    842.62791613	    -46.26493539	     12.34195748	     33.68283592	     24.24894599	     45.00000000	    -45.00000000	  -3327.02765113	  -3166.15671796	     23.74323364	    179.99999979	   1803.93417173	   -187.88915366	     13.73281578	     15.49846148	     -7.24795654	    -45.00000000	    -39.49331911	     45.00000000	    -45.00000000	  -2414.64249372	    -87.98050264	    135.08220546	   -130.70736285	    349.89537651	     40.68287372	     13.63650285	    -19.52383990
      4.63000000	     32.26461891	     23.78937461	     31.09772413	    -93.07045422	    844.55091787	    -46.33529020	     12.32680926	     33.64541503	     24.29883088	     45.00000000	    -45.00000000	  -3327.14422915	  -3166.15309877	     23.78084594	    179.99999979	   1803.78410538	   -188.42184760	     13.79314502	     15.51369873	     -7.07216417	    -45.00000000	    -39.61159692	     45.00000000	    -45.00000000	  -2414.54519021	    -87.90902437	    135.03678668	   -130.52599956	    349.89446804	     40.65293069	     13.70848779	    -19.64515040
      4.64000000	     32.28831573	     23.74418397	     31.03683340	    -93.88382252	    846.38609109	    -46.39686567	     12.31120020	     33.61487433	     24.34969286	     45.00000000	    -45.00000000	  -3327.24546945	  -3166.15658828	     23.82195207	    179.99999979	   1803.65131417	   -188.89297448	     13.85245575	     15.52140288	     -6.91485564	    -45.00000000	    -39.72283201	     45.00000000	    -45.00000000	  -2414.45151495	    -87.83856055	    134.99967199	   -130.34357311	    349.89122637	     40.66268725	     13.77171695	    -19.77045870
      4.65000000	     32.31721553	     23.73198052	     30.97955953	    -94.63696325	    848.12504180	    -46.45041270	     12.29168217	     33.57985774	     24.38351786	     45.00000000	    -45.00000000	  -3327.36497412	  -3166.15093427	     23.84963059	    179.99999979	   1803.50017196	   -189.30198094	     13.92171419	     15.52479072	     -6.75277074	    -45.00000000	    -39.82300265	     45.00000000	    -45.00000000	  -2414.36875152	    -87.77655278	    134.94276276	   -130.15063145	    349.88739811	     40.71081737	     13.82843866	    -19.89989986
      4.66000000	     32.33924938	     23.70678542	     30.93437710	    -95.33247504	    849.75633459	    -46.49739429	     12.27346718	     33.55145818	     24.42417097	     45.00000000	    -45.00000000	  -3327.46410928	  -3166.14960602	     23.88312640	    179.99999979	   1803.35909027	   -189.64904179	     13.98946660	     15.52229543	     -6.61923909	    -45.00000000	    -39.91511886	     45.00000000	    -45.00000000	  -2414.28876810	    -87.72534491	    134.90227951	   -129.99191651	    349.88927203	     40.79062043	     13.87386046	    -20.03178404
      4.67000000	     32.36676775	     23.70485208	     30.90275907	    -95.97377203	    851.26802079	    -46.53918866	     12.25022961	     33.54434354	     24.48371615	     45.00000000	    -45.00000000	  -3327.57545230	  -3166.15641968	     23.90247656	    179.99999979	   1803.25160923	   -189.93215511	     14.05387086	     15.51314436	     -6.49848952	    -45.00000000	    -39.98540859	     45.00000000	    -45.00000000	  -2414.21289338	    -87.68306041	    134.84902228	   -129.80559907	    349.90103042	     40.89170011	     13.91637362	    -20.17583690
      4.68000000	     32.60456753	     23.35054638	     30.42873393	    -96.56736373	    852.64838818	    -46.57638430	     12.14154461	     33.59826471	     24.85308357	     45.00000000	    -45.00000000	  -3327.74006635	  -3166.39968292	     24.03555631	    179.99999979	   1803.18176896	   -190.11357389	     14.12478959	     15.62923206	     -6.32067035	    -45.00000000	    -39.89357362	     45.00000000	    -45.00000000	  -2414.04887733	    -87.61369309	    134.43664422	   -129.64480924	    349.85893183	     40.99154542	     14.12098897	    -20.48165921
      4.69000000	     32.21625632	     23.89394063	     31.02251564	    -97.11787088	    853.88401061	    -46.60845344	     12.33733092	     33.51495798	     24.25291015	     45.00000000	    -45.00000000	  -3327.69380044	  -3166.13032595	     23.98368447	    179.99999979	   1803.01288888	   -190.32116481	     14.15499142	     15.44671711	     -6.42642093	    -45.00000000	    -40.49344769	     45.00000000	    -45.00000000	  -2414.15909364	    -87.63791693	    134.96938635	   -129.44437613	    349.86734531	     41.11609858	     13.83748510	    -20.28259085
      4.70000000	     32.38241553	     23.68054762	     30.87709238	    -97.63025301	    854.96373095	    -46.63467213	     12.13557998	     33.49910390	     24.55989465	     45.00000000	    -45.00000000	  -3327.81197593	  -3166.17908791	     23.98521458	    179.99999979	   1802.91381171	   -190.50876472	     14.22466050	     15.50406388	     -6.11597498	    -45.00000000	    -40.22333413	     45.00000000	    -45.00000000	  -2413.99182822	    -87.60989763	    134.74103617	   -129.42178960	    349.92941258	     41.27807022	     13.96774377	    -20.57317254
